<?xml version="1.0" standalone="no"?>
<!DOCTYPE svg PUBLIC "-//W3C//DTD SVG 20010904//EN"
 "http://www.w3.org/TR/2001/REC-SVG-20010904/DTD/svg10.dtd">
<svg version="1.0" xmlns="http://www.w3.org/2000/svg"
 width="262.000000pt" height="262.000000pt" viewBox="0 0 262.000000 262.000000"
 preserveAspectRatio="xMidYMid meet">
<metadata>
Created by potrace 1.14, written by Peter Selinger 2001-2017
</metadata>
<g transform="translate(0.000000,262.000000) scale(0.100000,-0.100000)"
fill="#000000" stroke="none">
<path d="M946 2438 c-114 -257 -246 -538 -459 -978 l-76 -155 -59 125 c-33 69
-94 195 -136 280 l-75 155 -25 -57 c-14 -30 -35 -88 -46 -127 l-22 -72 120
-257 c67 -141 132 -283 146 -314 20 -46 30 -58 48 -58 19 0 28 13 52 73 64
157 514 1116 556 1185 12 20 8 -1090 -4 -1124 -11 -30 -47 -44 -116 -44 l-60
0 0 -33 0 -33 295 1 295 0 0 31 0 32 -75 4 c-89 4 -105 16 -116 85 -11 67 -11
1149 0 1197 5 21 15 44 21 50 6 6 46 13 88 16 l77 5 3 33 3 32 -206 0 -206 0
-23 -52z"/>
<path d="M1613 1313 l-353 -3 0 -35 0 -35 60 0 c33 0 76 -6 94 -14 55 -23 57
-49 54 -669 -2 -442 -1 -547 10 -547 22 0 166 31 180 39 11 7 14 91 13 464 -1
250 1 507 5 570 l7 115 74 16 c129 28 273 18 359 -27 40 -20 99 -86 121 -134
12 -27 17 -65 17 -133 0 -81 -4 -103 -25 -150 -54 -117 -133 -164 -274 -165
-49 0 -106 3 -127 8 l-36 8 10 -40 c6 -22 17 -43 27 -46 9 -4 57 -9 106 -12
218 -13 413 94 502 274 31 63 37 87 41 156 3 67 0 93 -18 141 -40 105 -137
178 -270 204 -80 16 -184 18 -577 15z"/>
</g>
</svg>
